{"glyphs":{"0":{"ha":1157,"x_min":0,"x_max":0,"o":"m 338 529 b 317 517 328 531 319 525 l 178 119 b 189 96 175 110 179 99 b 213 107 199 92 210 97 l 315 401 l 315 172 b 186 38 315 97 258 38 l 165 38 b 38 172 94 38 38 97 l 38 511 b 165 647 38 586 94 647 l 186 647 b 281 604 222 647 256 632 b 307 603 288 596 299 596 b 308 629 314 610 315 621 b 186 683 276 664 232 683 l 165 683 b 0 511 74 683 0 606 l 0 172 b 165 0 0 78 74 0 l 186 0 b 353 172 278 0 353 78 l 353 511 b 338 529 353 519 346 528 z "},"1":{"ha":1157,"x_min":0,"x_max":0,"o":"m 193 0 b 211 18 203 0 211 8 l 211 511 b 46 683 211 606 138 683 l 18 683 b 0 665 8 683 0 675 b 18 647 0 656 8 647 l 46 647 b 174 511 117 647 174 586 l 174 18 b 193 0 174 8 182 0 z "},"2":{"ha":1157,"x_min":0,"x_max":0,"o":"m 342 18 b 324 38 342 29 333 38 l 38 38 l 38 182 b 161 322 35 257 90 319 l 182 324 b 182 324 182 324 182 324 b 342 503 274 326 344 407 l 342 517 b 286 640 339 564 319 608 b 169 683 254 669 214 683 l 149 683 b 8 590 89 683 36 644 b 17 565 3 582 7 571 b 40 574 25 561 36 565 b 150 646 63 617 104 646 l 171 646 b 261 613 204 646 236 636 b 304 515 288 588 303 553 l 304 501 b 181 360 307 426 251 363 l 160 360 b 160 360 160 360 160 360 b 0 181 68 356 -3 275 l 0 18 b 18 0 0 8 8 0 l 324 0 b 342 18 333 0 342 8 z "},"3":{"ha":1157,"x_min":0,"x_max":0,"o":"m 186 0 b 353 172 278 0 353 78 l 353 178 b 186 350 353 274 278 350 l 143 350 l 143 390 l 186 390 b 353 526 285 390 353 446 l 353 531 b 186 683 353 615 278 683 l 165 683 b 19 603 104 683 49 653 b 0 531 7 581 0 556 l 0 518 b 18 499 0 507 8 499 b 38 518 29 499 38 507 l 38 531 b 51 585 38 550 42 568 b 165 647 74 622 118 647 l 186 647 b 315 531 258 647 315 594 l 315 526 b 186 428 315 458 251 428 l 124 428 b 106 408 114 428 106 419 l 106 332 b 124 314 106 322 114 314 l 186 314 b 315 178 258 314 315 253 l 315 172 b 186 38 315 97 258 38 l 165 38 b 39 149 103 38 50 83 b 38 172 38 156 38 164 l 38 194 b 18 214 38 206 29 214 b 0 194 8 214 0 206 l 0 172 b 3 142 0 163 1 151 b 165 0 17 60 86 0 l 186 0 z "},"4":{"ha":1157,"x_min":0,"x_max":0,"o":"m 228 646 l 290 647 b 308 665 300 647 308 656 b 290 683 308 675 300 683 b 289 683 290 683 290 683 l 218 683 b 201 674 211 683 206 679 l 3 351 b 0 342 1 349 0 346 l 0 278 b 18 260 0 268 8 260 l 199 260 l 199 18 b 204 6 199 14 201 8 b 218 0 208 1 213 0 b 218 0 218 0 218 0 l 303 1 b 321 19 313 1 321 10 l 321 324 l 369 324 b 388 342 379 324 388 332 b 369 360 388 351 379 360 l 303 360 b 285 342 293 360 285 351 l 285 38 l 236 38 l 236 278 b 218 297 236 289 228 297 l 38 297 l 38 336 l 228 646 z "},"5":{"ha":1157,"x_min":0,"x_max":0,"o":"m 317 646 b 336 665 328 646 336 654 b 317 683 336 675 328 683 l 54 683 b 36 665 44 683 36 675 l 36 343 b 54 324 36 332 44 324 l 154 324 l 175 324 b 299 182 246 321 301 257 l 299 168 b 254 71 297 131 282 96 b 165 38 229 47 197 36 l 143 38 b 35 110 99 40 57 67 b 10 118 31 118 19 122 b 1 93 1 113 -3 101 b 142 1 29 39 83 3 l 164 0 b 169 0 165 0 168 0 b 279 43 210 0 249 15 b 335 167 314 75 333 119 l 336 181 b 175 361 339 276 267 357 l 154 361 l 72 361 l 72 646 l 317 646 z "},"6":{"ha":1157,"x_min":0,"x_max":0,"o":"m 38 511 b 165 647 38 586 94 647 l 186 647 b 315 511 258 647 315 586 b 333 492 315 500 324 492 b 353 511 344 492 353 500 b 186 683 353 606 278 683 l 165 683 b 0 511 74 683 0 606 l 0 278 l 0 172 b 165 0 0 78 74 0 l 186 0 b 353 172 278 0 353 78 l 353 278 b 186 451 353 374 278 451 l 165 451 b 92 433 140 451 115 446 b 83 408 82 428 79 417 b 108 400 89 399 100 396 b 165 414 126 410 146 414 l 186 414 b 315 278 258 414 315 353 l 315 172 b 186 38 315 97 258 38 l 165 38 b 38 172 94 38 38 97 l 38 278 l 38 511 z "},"7":{"ha":1157,"x_min":0,"x_max":0,"o":"m 333 683 l 18 683 b 0 665 8 683 0 675 b 18 647 0 656 8 647 l 314 647 l 172 364 b 171 363 172 364 172 364 b 171 361 171 363 171 363 b 171 360 171 361 171 360 b 169 358 169 360 169 358 b 169 356 169 357 169 357 b 169 356 169 356 169 356 l 169 18 b 189 0 169 8 178 0 b 189 0 189 0 189 0 b 189 0 189 0 189 0 l 269 0 b 288 18 279 0 288 8 l 288 324 l 324 324 b 342 342 333 324 342 332 b 324 361 342 353 333 361 l 269 361 b 250 342 258 361 250 353 l 250 38 l 207 38 l 207 351 l 350 636 b 353 644 351 639 353 642 l 353 665 b 333 683 353 675 344 683 z "},"8":{"ha":1157,"x_min":0,"x_max":0,"o":"m 188 361 l 165 361 b 163 361 165 361 164 361 b 38 496 93 363 38 422 l 38 511 b 165 647 38 586 94 647 l 186 647 b 315 511 258 647 315 586 l 315 496 b 285 408 315 464 304 433 b 288 382 279 400 279 389 b 314 385 296 376 307 378 b 353 496 339 417 353 456 l 353 511 b 186 683 353 606 278 683 l 165 683 b 0 511 74 683 0 606 l 0 496 b 165 324 0 401 74 324 l 186 324 b 189 324 188 324 189 324 b 315 188 260 322 315 263 l 315 172 b 188 38 315 97 258 38 l 165 38 b 38 172 94 38 38 97 l 38 188 b 72 281 38 222 50 256 b 71 307 79 289 78 300 b 44 306 63 314 51 314 b 0 188 15 274 0 232 l 0 172 b 165 0 0 78 74 0 l 188 0 b 353 172 279 0 353 78 l 353 188 b 188 361 353 283 279 361 z "},"9":{"ha":1157,"x_min":0,"x_max":0,"o":"m 186 683 l 165 683 b 0 511 74 683 0 606 l 0 406 b 165 232 0 310 74 232 l 186 232 b 268 254 215 232 243 240 b 275 281 276 260 281 271 b 250 286 269 289 258 292 b 186 269 231 275 208 269 l 165 269 b 38 406 94 269 38 331 l 38 511 b 165 647 38 586 94 647 l 186 647 b 315 511 258 647 315 586 l 315 406 l 315 172 b 186 38 315 97 258 38 l 165 38 b 38 172 94 38 38 97 b 18 192 38 183 29 192 b 0 172 8 192 0 183 b 165 0 0 78 74 0 l 186 0 b 353 172 278 0 353 78 l 353 406 l 353 511 b 186 683 353 606 278 683 z "},"B":{"ha":1157,"x_min":0,"x_max":0,"o":"m 18 419 b 38 438 29 419 38 428 l 38 647 l 164 647 b 271 532 224 647 271 596 l 271 497 b 161 383 271 433 229 390 l 18 371 b 17 371 18 371 18 371 b 15 371 17 371 15 371 b 14 369 15 371 14 371 b 13 369 13 369 13 369 b 10 368 11 369 11 369 b 8 368 10 368 10 368 b 7 367 8 367 8 367 b 6 365 7 365 7 365 b 6 364 6 365 6 364 b 4 363 4 364 4 363 b 3 361 4 361 3 361 b 3 360 3 360 3 360 b 1 357 3 358 3 358 b 1 356 1 357 1 356 b 1 354 1 356 1 354 b 1 353 1 353 1 353 l 1 18 b 19 0 1 8 10 0 l 165 0 l 186 0 b 326 172 272 0 326 68 l 326 213 b 281 332 326 258 310 300 b 254 333 274 340 263 340 b 254 307 247 326 247 315 b 289 213 276 282 289 249 l 289 172 b 186 38 289 107 263 38 l 165 38 l 39 38 l 39 336 l 165 346 b 308 497 253 356 308 414 l 308 532 b 164 683 308 615 243 683 l 18 683 b 0 665 8 683 0 675 l 0 438 b 18 419 0 428 8 419 z "},"C":{"ha":1157,"x_min":0,"x_max":0,"o":"m 165 0 l 186 0 b 353 172 278 0 353 78 b 333 192 353 183 344 192 b 315 172 324 192 315 183 b 186 38 315 97 258 38 l 165 38 b 38 172 94 38 38 97 l 38 511 b 165 647 38 586 94 647 l 186 647 b 315 511 258 647 315 586 b 333 493 315 500 324 493 b 353 511 344 493 353 500 b 186 683 353 606 278 683 l 165 683 b 0 511 74 683 0 606 l 0 172 b 165 0 0 78 74 0 z "},"D":{"ha":1157,"x_min":0,"x_max":0,"o":"m 18 0 l 186 0 b 353 172 278 0 353 78 l 353 511 b 188 683 353 606 278 683 l 111 685 b 92 667 100 685 92 676 b 111 647 92 656 100 647 l 186 647 b 315 511 258 647 315 586 l 315 172 b 186 38 315 97 258 38 l 38 38 l 38 665 b 18 683 38 675 29 683 b 0 665 8 683 0 675 l 0 18 b 18 0 0 8 8 0 z "},"E":{"ha":1157,"x_min":0,"x_max":0,"o":"m 18 356 l 199 356 l 199 314 l 19 314 b 1 294 10 314 1 306 l 1 18 b 19 0 1 8 10 0 l 333 0 b 353 18 344 0 353 8 b 333 38 353 29 344 38 l 39 38 l 39 276 l 218 276 b 236 294 228 276 236 285 l 236 375 b 218 393 236 385 228 393 l 38 393 l 38 647 l 333 647 b 353 665 344 647 353 656 b 333 683 353 675 344 683 l 18 683 b 0 665 8 683 0 675 l 0 375 b 18 356 0 364 8 356 z "},"F":{"ha":1157,"x_min":0,"x_max":0,"o":"m 18 360 l 199 360 l 199 314 l 19 314 b 1 294 10 314 1 306 l 1 18 b 19 0 1 8 10 0 b 39 18 31 0 39 8 l 39 276 l 218 276 b 236 294 228 276 236 285 l 236 378 b 218 397 236 389 228 397 l 38 397 l 38 647 l 333 647 b 353 665 344 647 353 656 b 333 683 353 675 344 683 l 18 683 b 0 665 8 683 0 675 l 0 378 b 18 360 0 368 8 360 z "},"G":{"ha":1157,"x_min":0,"x_max":0,"o":"m 165 0 l 186 0 b 353 172 278 0 353 78 l 353 292 b 333 311 353 303 344 311 l 236 311 l 236 353 l 333 353 b 353 371 344 353 353 361 b 333 390 353 382 344 390 l 218 390 b 199 371 207 390 199 382 l 199 292 b 218 274 199 282 207 274 l 315 274 l 315 172 b 186 38 315 97 258 38 l 165 38 b 38 172 94 38 38 97 l 38 511 b 165 647 38 586 94 647 l 186 647 b 315 511 258 647 315 586 b 333 493 315 500 324 493 b 353 511 344 493 353 500 b 186 683 353 606 278 683 l 165 683 b 0 511 74 683 0 606 l 0 172 b 165 0 0 78 74 0 z "},"H":{"ha":1157,"x_min":0,"x_max":0,"o":"m 246 683 b 228 665 236 683 228 675 l 228 335 l 106 335 b 88 317 96 335 88 326 l 88 38 l 38 38 l 38 665 b 18 683 38 675 29 683 b 0 665 8 683 0 675 l 0 18 b 18 0 0 8 8 0 l 106 0 b 125 18 117 0 125 8 l 125 299 l 246 299 b 265 317 257 299 265 307 l 265 647 l 315 647 l 315 18 b 333 0 315 8 324 0 b 353 18 344 0 353 8 l 353 665 b 333 683 353 675 344 683 l 246 683 z "},"I":{"ha":871,"x_min":0,"x_max":0,"o":"m 38 18 l 38 665 b 18 683 38 675 29 683 b 0 665 8 683 0 675 l 0 18 b 18 0 0 8 8 0 b 38 18 29 0 38 8 z "},"J":{"ha":1157,"x_min":0,"x_max":0,"o":"m 174 665 l 174 172 b 46 38 174 97 117 38 l 18 38 b 0 18 8 38 0 29 b 18 0 0 8 8 0 l 46 0 b 211 172 138 0 211 78 l 211 665 b 193 683 211 675 203 683 b 174 665 182 683 174 675 z "},"K":{"ha":1157,"x_min":0,"x_max":0,"o":"m 272 671 l 50 38 l 38 38 l 38 665 b 18 683 38 675 29 683 b 0 665 8 683 0 675 l 0 18 b 18 0 0 8 8 0 l 63 0 b 81 13 71 0 78 6 l 303 647 l 351 647 l 222 285 b 224 271 221 281 221 275 l 335 11 b 351 0 338 4 344 0 b 358 1 354 0 357 0 b 368 26 368 6 372 17 l 260 279 l 394 660 b 392 676 397 665 396 671 b 378 683 389 681 383 683 l 290 683 b 272 671 282 683 275 679 z "},"L":{"ha":1157,"x_min":0,"x_max":0,"o":"m 18 0 l 290 0 b 308 18 300 0 308 8 b 290 38 308 29 300 38 l 38 38 l 38 665 b 18 683 38 675 29 683 b 0 665 8 683 0 675 l 0 18 b 18 0 0 8 8 0 z "},"M":{"ha":1157,"x_min":0,"x_max":0,"o":"m 18 0 b 38 18 29 0 38 8 l 38 647 l 38 647 l 201 14 b 219 0 204 6 211 0 l 240 0 b 258 14 249 0 256 6 l 415 647 l 421 647 l 421 18 b 439 0 421 8 429 0 b 458 18 450 0 458 8 l 458 665 b 439 683 458 675 450 683 l 400 683 b 382 669 392 683 385 678 l 229 53 l 69 669 b 53 683 68 678 61 683 l 18 683 b 0 665 8 683 0 675 l 0 18 b 18 0 0 8 8 0 z "},"N":{"ha":1157,"x_min":0,"x_max":0,"o":"m 315 38 l 303 38 l 81 671 b 63 683 78 679 71 683 l 18 683 b 0 665 8 683 0 675 l 0 18 b 18 0 0 8 8 0 b 38 18 29 0 38 8 l 38 647 l 50 647 l 272 13 b 290 0 275 6 282 0 l 333 0 b 353 18 344 0 353 8 l 353 665 b 333 683 353 675 344 683 b 315 665 324 683 315 675 l 315 38 z "},"O":{"ha":1157,"x_min":0,"x_max":0,"o":"m 315 511 l 315 172 b 186 38 315 97 258 38 l 165 38 b 38 172 94 38 38 97 l 38 511 b 165 647 38 586 94 647 l 186 647 b 281 604 222 647 256 632 b 307 603 288 596 299 596 b 308 629 314 610 315 621 b 186 683 276 664 232 683 l 165 683 b 0 511 74 683 0 606 l 0 172 b 165 0 0 78 74 0 l 186 0 b 353 172 278 0 353 78 l 353 511 b 333 529 353 521 344 529 b 315 511 324 529 315 521 z "},"P":{"ha":1157,"x_min":0,"x_max":0,"o":"m 353 511 b 186 683 353 606 278 683 l 165 683 l 18 683 b 0 665 8 683 0 675 l 0 18 b 18 0 0 8 8 0 b 38 18 29 0 38 8 l 38 647 l 165 647 l 186 647 b 315 511 258 647 315 586 l 315 433 b 186 297 315 358 258 297 l 124 297 b 106 278 114 297 106 289 b 124 260 106 268 114 260 l 186 260 b 353 433 278 260 353 338 l 353 511 z "},"Q":{"ha":1157,"x_min":0,"x_max":0,"o":"m 267 67 b 265 40 260 60 258 49 b 290 39 271 33 283 32 b 353 172 331 71 353 121 l 353 511 b 186 683 353 606 278 683 l 165 683 b 0 511 74 683 0 606 l 0 172 b 117 8 0 96 47 31 b 117 1 117 6 117 3 l 117 -8 b 117 -11 117 -8 117 -10 b 178 -68 119 -43 146 -68 b 239 -4 211 -68 239 -40 b 221 14 239 6 231 14 b 201 -4 210 14 201 6 b 178 -31 201 -19 190 -31 b 153 -4 164 -31 153 -19 l 153 1 b 154 13 153 8 154 11 b 156 28 157 17 157 22 b 142 39 153 33 149 38 b 38 172 81 51 38 107 l 38 511 b 165 647 38 586 94 647 l 186 647 b 315 511 258 647 315 586 l 315 172 b 267 67 315 132 297 93 z "},"R":{"ha":1157,"x_min":0,"x_max":0,"o":"m 186 286 b 353 458 278 286 353 364 l 353 511 b 186 683 353 606 278 683 l 18 683 b 0 665 8 683 0 675 l 0 18 b 18 0 0 8 8 0 b 38 18 29 0 38 8 l 38 647 l 186 647 b 315 511 258 647 315 586 l 315 458 b 186 322 315 383 258 322 l 107 322 b 88 304 96 322 88 314 l 88 229 b 107 211 88 219 96 211 l 233 211 b 315 124 279 211 315 172 l 315 18 b 333 0 315 8 324 0 b 353 18 344 0 353 8 l 353 124 b 233 247 353 192 299 247 l 125 247 l 125 286 l 186 286 z "},"S":{"ha":1157,"x_min":0,"x_max":0,"o":"m 19 213 b 0 194 10 213 1 204 l 0 181 b 15 100 -1 153 4 125 b 160 1 42 42 97 3 b 297 43 213 -1 258 8 b 353 167 331 75 350 119 l 353 181 b 193 360 356 276 285 357 b 193 360 193 360 193 360 b 49 517 89 369 47 443 b 93 614 50 554 65 589 b 203 646 117 636 149 649 b 313 575 249 644 290 617 b 338 567 317 565 328 563 b 344 592 346 571 350 582 b 204 683 318 646 264 681 b 67 640 140 686 100 671 b 13 518 33 608 14 565 b 192 324 14 404 83 324 b 315 182 263 321 318 257 l 315 168 b 272 71 314 131 299 96 b 161 38 247 47 215 36 b 50 115 113 40 69 69 b 38 179 40 135 36 157 l 38 193 b 19 213 38 204 31 213 z "},"T":{"ha":1157,"x_min":0,"x_max":0,"o":"m 18 647 l 315 647 l 315 596 l 176 596 b 158 578 165 596 158 588 l 158 18 b 176 0 158 8 165 0 b 194 18 186 0 194 8 l 194 558 l 333 558 b 353 578 344 558 353 567 l 353 665 b 333 683 353 675 344 683 l 18 683 b 0 665 8 683 0 675 b 18 647 0 656 8 647 z "},"U":{"ha":1157,"x_min":0,"x_max":0,"o":"m 193 0 b 358 172 285 0 358 78 l 358 665 b 340 683 358 675 350 683 b 321 665 329 683 321 675 l 321 172 b 193 38 321 97 264 38 l 165 38 b 38 172 94 38 38 97 l 38 665 b 18 683 38 675 29 683 b 0 665 8 683 0 675 l 0 172 b 165 0 0 78 74 0 l 193 0 z "},"V":{"ha":1157,"x_min":0,"x_max":0,"o":"m 135 0 l 218 0 b 236 15 226 0 235 7 l 353 663 b 338 683 354 672 347 682 b 315 668 328 685 318 679 l 203 38 l 150 38 l 36 668 b 15 683 35 679 25 685 b 0 663 6 682 -1 672 l 117 15 b 135 0 118 7 125 0 z "},"W":{"ha":1157,"x_min":0,"x_max":0,"o":"m 81 0 l 119 0 b 138 15 129 0 136 6 l 228 471 l 325 15 b 343 0 328 6 335 0 l 378 0 b 396 17 386 0 394 7 l 458 664 b 442 683 458 674 451 683 b 421 667 431 685 422 678 l 360 38 l 358 38 l 257 517 b 239 532 254 525 247 532 l 218 532 b 200 517 208 532 201 525 l 104 38 l 97 38 l 38 667 b 17 683 36 678 26 685 b 0 664 7 683 -1 674 l 63 17 b 81 0 64 7 71 0 z "},"X":{"ha":1157,"x_min":0,"x_max":0,"o":"m 315 671 l 93 38 l 44 38 l 151 336 b 153 346 153 339 153 343 l 81 669 b 58 683 78 679 68 686 b 44 661 49 681 42 671 l 115 343 l 1 25 b 3 8 -1 19 0 13 b 18 0 7 3 13 0 l 106 0 b 124 13 114 0 121 6 l 346 647 l 394 647 l 288 347 b 288 336 286 344 286 340 l 376 14 b 394 0 379 6 386 0 b 400 0 396 0 399 0 b 413 24 410 3 415 14 l 324 340 l 439 658 b 436 676 440 665 440 671 b 421 683 433 681 426 683 l 333 683 b 315 671 325 683 318 679 z "},"Y":{"ha":1157,"x_min":0,"x_max":0,"o":"m 317 671 l 93 38 l 44 38 l 156 361 b 156 374 157 365 157 369 l 36 672 b 11 682 32 682 21 686 b 1 658 3 679 -3 668 l 118 367 l 1 25 b 3 8 -1 19 0 13 b 18 0 7 3 13 0 l 106 0 b 124 13 114 0 121 6 l 351 660 b 340 683 354 668 350 679 b 317 671 331 686 319 681 z "},"Z":{"ha":1157,"x_min":0,"x_max":0,"o":"m 353 650 l 353 665 b 333 683 353 675 344 683 l 18 683 b 0 665 8 683 0 675 b 18 647 0 656 8 647 l 311 647 l 1 40 b 0 32 0 38 0 35 l 0 18 b 18 0 0 8 8 0 l 333 0 b 353 18 344 0 353 8 b 333 38 353 29 344 38 l 42 38 l 350 642 b 353 650 351 643 353 647 z "},"a":{"ha":1157,"x_min":0,"x_max":0,"o":"m 14 0 b 18 0 15 0 17 0 b 36 14 26 0 35 6 l 74 185 l 221 185 b 235 192 226 185 232 188 b 239 207 239 196 240 201 l 228 282 b 210 297 226 290 218 297 l 96 297 l 158 646 l 211 646 l 325 15 b 346 0 326 6 336 -1 b 361 22 356 1 363 11 l 244 668 b 226 683 243 676 236 683 l 143 683 b 125 668 135 683 126 676 l 56 282 b 60 267 54 276 56 271 b 74 260 64 263 68 260 l 193 260 l 199 222 l 60 222 b 42 208 50 222 43 217 l 0 22 b 14 0 -1 13 4 3 z "},"b":{"ha":1157,"x_min":0,"x_max":0,"o":"m 18 419 b 38 438 29 419 38 428 l 38 647 l 164 647 b 271 532 224 647 271 596 l 271 497 b 161 383 271 433 229 390 l 18 371 b 17 371 18 371 18 371 b 15 371 17 371 15 371 b 14 369 15 371 14 371 b 13 369 13 369 13 369 b 10 368 11 369 11 369 b 8 368 10 368 10 368 b 7 367 8 367 8 367 b 6 365 7 365 7 365 b 6 364 6 365 6 364 b 4 363 4 364 4 363 b 3 361 4 361 3 361 b 3 360 3 360 3 360 b 1 357 3 358 3 358 b 1 356 1 357 1 356 b 1 354 1 356 1 354 b 1 353 1 353 1 353 l 1 18 b 19 0 1 8 10 0 l 165 0 l 186 0 b 326 172 272 0 326 68 l 326 213 b 281 332 326 258 310 300 b 254 333 274 340 263 340 b 254 307 247 326 247 315 b 289 213 276 282 289 249 l 289 172 b 186 38 289 107 263 38 l 165 38 l 39 38 l 39 336 l 165 346 b 308 497 253 356 308 414 l 308 532 b 164 683 308 615 243 683 l 18 683 b 0 665 8 683 0 675 l 0 438 b 18 419 0 428 8 419 z "},"c":{"ha":1157,"x_min":0,"x_max":0,"o":"m 165 0 l 186 0 b 353 172 278 0 353 78 b 333 192 353 183 344 192 b 315 172 324 192 315 183 b 186 38 315 97 258 38 l 165 38 b 38 172 94 38 38 97 l 38 511 b 165 647 38 586 94 647 l 186 647 b 315 511 258 647 315 586 b 333 493 315 500 324 493 b 353 511 344 493 353 500 b 186 683 353 606 278 683 l 165 683 b 0 511 74 683 0 606 l 0 172 b 165 0 0 78 74 0 z "},"d":{"ha":1157,"x_min":0,"x_max":0,"o":"m 18 0 l 186 0 b 353 172 278 0 353 78 l 353 511 b 188 683 353 606 278 683 l 111 685 b 92 667 100 685 92 676 b 111 647 92 656 100 647 l 186 647 b 315 511 258 647 315 586 l 315 172 b 186 38 315 97 258 38 l 38 38 l 38 665 b 18 683 38 675 29 683 b 0 665 8 683 0 675 l 0 18 b 18 0 0 8 8 0 z "},"e":{"ha":1157,"x_min":0,"x_max":0,"o":"m 18 356 l 199 356 l 199 314 l 19 314 b 1 294 10 314 1 306 l 1 18 b 19 0 1 8 10 0 l 333 0 b 353 18 344 0 353 8 b 333 38 353 29 344 38 l 39 38 l 39 276 l 218 276 b 236 294 228 276 236 285 l 236 375 b 218 393 236 385 228 393 l 38 393 l 38 647 l 333 647 b 353 665 344 647 353 656 b 333 683 353 675 344 683 l 18 683 b 0 665 8 683 0 675 l 0 375 b 18 356 0 364 8 356 z "},"f":{"ha":1157,"x_min":0,"x_max":0,"o":"m 18 360 l 199 360 l 199 314 l 19 314 b 1 294 10 314 1 306 l 1 18 b 19 0 1 8 10 0 b 39 18 31 0 39 8 l 39 276 l 218 276 b 236 294 228 276 236 285 l 236 378 b 218 397 236 389 228 397 l 38 397 l 38 647 l 333 647 b 353 665 344 647 353 656 b 333 683 353 675 344 683 l 18 683 b 0 665 8 683 0 675 l 0 378 b 18 360 0 368 8 360 z "},"g":{"ha":1157,"x_min":0,"x_max":0,"o":"m 165 0 l 186 0 b 353 172 278 0 353 78 l 353 292 b 333 311 353 303 344 311 l 236 311 l 236 353 l 333 353 b 353 371 344 353 353 361 b 333 390 353 382 344 390 l 218 390 b 199 371 207 390 199 382 l 199 292 b 218 274 199 282 207 274 l 315 274 l 315 172 b 186 38 315 97 258 38 l 165 38 b 38 172 94 38 38 97 l 38 511 b 165 647 38 586 94 647 l 186 647 b 315 511 258 647 315 586 b 333 493 315 500 324 493 b 353 511 344 493 353 500 b 186 683 353 606 278 683 l 165 683 b 0 511 74 683 0 606 l 0 172 b 165 0 0 78 74 0 z "},"h":{"ha":1157,"x_min":0,"x_max":0,"o":"m 246 683 b 228 665 236 683 228 675 l 228 335 l 106 335 b 88 317 96 335 88 326 l 88 38 l 38 38 l 38 665 b 18 683 38 675 29 683 b 0 665 8 683 0 675 l 0 18 b 18 0 0 8 8 0 l 106 0 b 125 18 117 0 125 8 l 125 299 l 246 299 b 265 317 257 299 265 307 l 265 647 l 315 647 l 315 18 b 333 0 315 8 324 0 b 353 18 344 0 353 8 l 353 665 b 333 683 353 675 344 683 l 246 683 z "},"i":{"ha":871,"x_min":0,"x_max":0,"o":"m 38 18 l 38 665 b 18 683 38 675 29 683 b 0 665 8 683 0 675 l 0 18 b 18 0 0 8 8 0 b 38 18 29 0 38 8 z "},"j":{"ha":1157,"x_min":0,"x_max":0,"o":"m 174 665 l 174 172 b 46 38 174 97 117 38 l 18 38 b 0 18 8 38 0 29 b 18 0 0 8 8 0 l 46 0 b 211 172 138 0 211 78 l 211 665 b 193 683 211 675 203 683 b 174 665 182 683 174 675 z "},"k":{"ha":1157,"x_min":0,"x_max":0,"o":"m 272 671 l 50 38 l 38 38 l 38 665 b 18 683 38 675 29 683 b 0 665 8 683 0 675 l 0 18 b 18 0 0 8 8 0 l 63 0 b 81 13 71 0 78 6 l 303 647 l 351 647 l 222 285 b 224 271 221 281 221 275 l 335 11 b 351 0 338 4 344 0 b 358 1 354 0 357 0 b 368 26 368 6 372 17 l 260 279 l 394 660 b 392 676 397 665 396 671 b 378 683 389 681 383 683 l 290 683 b 272 671 282 683 275 679 z "},"l":{"ha":1157,"x_min":0,"x_max":0,"o":"m 18 0 l 290 0 b 308 18 300 0 308 8 b 290 38 308 29 300 38 l 38 38 l 38 665 b 18 683 38 675 29 683 b 0 665 8 683 0 675 l 0 18 b 18 0 0 8 8 0 z "},"m":{"ha":1157,"x_min":0,"x_max":0,"o":"m 18 0 b 38 18 29 0 38 8 l 38 647 l 38 647 l 201 14 b 219 0 204 6 211 0 l 240 0 b 258 14 249 0 256 6 l 415 647 l 421 647 l 421 18 b 439 0 421 8 429 0 b 458 18 450 0 458 8 l 458 665 b 439 683 458 675 450 683 l 400 683 b 382 669 392 683 385 678 l 229 53 l 69 669 b 53 683 68 678 61 683 l 18 683 b 0 665 8 683 0 675 l 0 18 b 18 0 0 8 8 0 z "},"n":{"ha":1157,"x_min":0,"x_max":0,"o":"m 315 38 l 303 38 l 81 671 b 63 683 78 679 71 683 l 18 683 b 0 665 8 683 0 675 l 0 18 b 18 0 0 8 8 0 b 38 18 29 0 38 8 l 38 647 l 50 647 l 272 13 b 290 0 275 6 282 0 l 333 0 b 353 18 344 0 353 8 l 353 665 b 333 683 353 675 344 683 b 315 665 324 683 315 675 l 315 38 z "},"o":{"ha":1157,"x_min":0,"x_max":0,"o":"m 315 511 l 315 172 b 186 38 315 97 258 38 l 165 38 b 38 172 94 38 38 97 l 38 511 b 165 647 38 586 94 647 l 186 647 b 281 604 222 647 256 632 b 307 603 288 596 299 596 b 308 629 314 610 315 621 b 186 683 276 664 232 683 l 165 683 b 0 511 74 683 0 606 l 0 172 b 165 0 0 78 74 0 l 186 0 b 353 172 278 0 353 78 l 353 511 b 333 529 353 521 344 529 b 315 511 324 529 315 521 z "},"p":{"ha":1157,"x_min":0,"x_max":0,"o":"m 353 511 b 186 683 353 606 278 683 l 165 683 l 18 683 b 0 665 8 683 0 675 l 0 18 b 18 0 0 8 8 0 b 38 18 29 0 38 8 l 38 647 l 165 647 l 186 647 b 315 511 258 647 315 586 l 315 433 b 186 297 315 358 258 297 l 124 297 b 106 278 114 297 106 289 b 124 260 106 268 114 260 l 186 260 b 353 433 278 260 353 338 l 353 511 z "},"q":{"ha":1157,"x_min":0,"x_max":0,"o":"m 267 67 b 265 40 260 60 258 49 b 290 39 271 33 283 32 b 353 172 331 71 353 121 l 353 511 b 186 683 353 606 278 683 l 165 683 b 0 511 74 683 0 606 l 0 172 b 117 8 0 96 47 31 b 117 1 117 6 117 3 l 117 -8 b 117 -11 117 -8 117 -10 b 178 -68 119 -43 146 -68 b 239 -4 211 -68 239 -40 b 221 14 239 6 231 14 b 201 -4 210 14 201 6 b 178 -31 201 -19 190 -31 b 153 -4 164 -31 153 -19 l 153 1 b 154 13 153 8 154 11 b 156 28 157 17 157 22 b 142 39 153 33 149 38 b 38 172 81 51 38 107 l 38 511 b 165 647 38 586 94 647 l 186 647 b 315 511 258 647 315 586 l 315 172 b 267 67 315 132 297 93 z "},"r":{"ha":1157,"x_min":0,"x_max":0,"o":"m 186 286 b 353 458 278 286 353 364 l 353 511 b 186 683 353 606 278 683 l 18 683 b 0 665 8 683 0 675 l 0 18 b 18 0 0 8 8 0 b 38 18 29 0 38 8 l 38 647 l 186 647 b 315 511 258 647 315 586 l 315 458 b 186 322 315 383 258 322 l 107 322 b 88 304 96 322 88 314 l 88 229 b 107 211 88 219 96 211 l 233 211 b 315 124 279 211 315 172 l 315 18 b 333 0 315 8 324 0 b 353 18 344 0 353 8 l 353 124 b 233 247 353 192 299 247 l 125 247 l 125 286 l 186 286 z "},"s":{"ha":1157,"x_min":0,"x_max":0,"o":"m 19 213 b 0 194 10 213 1 204 l 0 181 b 15 100 -1 153 4 125 b 160 1 42 42 97 3 b 297 43 213 -1 258 8 b 353 167 331 75 350 119 l 353 181 b 193 360 356 276 285 357 b 193 360 193 360 193 360 b 49 517 89 369 47 443 b 93 614 50 554 65 589 b 203 646 117 636 149 649 b 313 575 249 644 290 617 b 338 567 317 565 328 563 b 344 592 346 571 350 582 b 204 683 318 646 264 681 b 67 640 140 686 100 671 b 13 518 33 608 14 565 b 192 324 14 404 83 324 b 315 182 263 321 318 257 l 315 168 b 272 71 314 131 299 96 b 161 38 247 47 215 36 b 50 115 113 40 69 69 b 38 179 40 135 36 157 l 38 193 b 19 213 38 204 31 213 z "},"t":{"ha":1157,"x_min":0,"x_max":0,"o":"m 18 647 l 315 647 l 315 596 l 176 596 b 158 578 165 596 158 588 l 158 18 b 176 0 158 8 165 0 b 194 18 186 0 194 8 l 194 558 l 333 558 b 353 578 344 558 353 567 l 353 665 b 333 683 353 675 344 683 l 18 683 b 0 665 8 683 0 675 b 18 647 0 656 8 647 z "},"u":{"ha":1157,"x_min":0,"x_max":0,"o":"m 193 0 b 358 172 285 0 358 78 l 358 665 b 340 683 358 675 350 683 b 321 665 329 683 321 675 l 321 172 b 193 38 321 97 264 38 l 165 38 b 38 172 94 38 38 97 l 38 665 b 18 683 38 675 29 683 b 0 665 8 683 0 675 l 0 172 b 165 0 0 78 74 0 l 193 0 z "},"v":{"ha":1157,"x_min":0,"x_max":0,"o":"m 135 0 l 218 0 b 236 15 226 0 235 7 l 353 663 b 338 683 354 672 347 682 b 315 668 328 685 318 679 l 203 38 l 150 38 l 36 668 b 15 683 35 679 25 685 b 0 663 6 682 -1 672 l 117 15 b 135 0 118 7 125 0 z "},"w":{"ha":1157,"x_min":0,"x_max":0,"o":"m 81 0 l 119 0 b 138 15 129 0 136 6 l 228 471 l 325 15 b 343 0 328 6 335 0 l 378 0 b 396 17 386 0 394 7 l 458 664 b 442 683 458 674 451 683 b 421 667 431 685 422 678 l 360 38 l 358 38 l 257 517 b 239 532 254 525 247 532 l 218 532 b 200 517 208 532 201 525 l 104 38 l 97 38 l 38 667 b 17 683 36 678 26 685 b 0 664 7 683 -1 674 l 63 17 b 81 0 64 7 71 0 z "},"x":{"ha":1157,"x_min":0,"x_max":0,"o":"m 315 671 l 93 38 l 44 38 l 151 336 b 153 346 153 339 153 343 l 81 669 b 58 683 78 679 68 686 b 44 661 49 681 42 671 l 115 343 l 1 25 b 3 8 -1 19 0 13 b 18 0 7 3 13 0 l 106 0 b 124 13 114 0 121 6 l 346 647 l 394 647 l 288 347 b 288 336 286 344 286 340 l 376 14 b 394 0 379 6 386 0 b 400 0 396 0 399 0 b 413 24 410 3 415 14 l 324 340 l 439 658 b 436 676 440 665 440 671 b 421 683 433 681 426 683 l 333 683 b 315 671 325 683 318 679 z "},"y":{"ha":1157,"x_min":0,"x_max":0,"o":"m 317 671 l 93 38 l 44 38 l 156 361 b 156 374 157 365 157 369 l 36 672 b 11 682 32 682 21 686 b 1 658 3 679 -3 668 l 118 367 l 1 25 b 3 8 -1 19 0 13 b 18 0 7 3 13 0 l 106 0 b 124 13 114 0 121 6 l 351 660 b 340 683 354 668 350 679 b 317 671 331 686 319 681 z "},"z":{"ha":1157,"x_min":0,"x_max":0,"o":"m 353 650 l 353 665 b 333 683 353 675 344 683 l 18 683 b 0 665 8 683 0 675 b 18 647 0 656 8 647 l 311 647 l 1 40 b 0 32 0 38 0 35 l 0 18 b 18 0 0 8 8 0 l 333 0 b 353 18 344 0 353 8 b 333 38 353 29 344 38 l 42 38 l 350 642 b 353 650 351 643 353 647 z "}," ":{"ha":278,"x_min":0,"x_max":0,"o":""},"A":{"ha":1157,"x_min":0,"x_max":0,"o":"m 14 0 b 18 0 15 0 17 0 b 36 14 26 0 35 6 l 74 185 l 221 185 b 235 192 226 185 232 188 b 239 207 239 196 240 201 l 228 282 b 210 297 226 290 218 297 l 96 297 l 158 646 l 211 646 l 325 15 b 346 0 326 6 336 -1 b 361 22 356 1 363 11 l 244 668 b 226 683 243 676 236 683 l 143 683 b 125 668 135 683 126 676 l 56 282 b 60 267 54 276 56 271 b 74 260 64 263 68 260 l 193 260 l 199 222 l 60 222 b 42 208 50 222 43 217 l 0 22 b 14 0 -1 13 4 3 z "}}}
